<?xml version="1.0" standalone="no"?>
<!DOCTYPE svg PUBLIC "-//W3C//DTD SVG 20010904//EN"
 "http://www.w3.org/TR/2001/REC-SVG-20010904/DTD/svg10.dtd">
<svg version="1.0" xmlns="http://www.w3.org/2000/svg"
 width="1712.000000pt" height="1712.000000pt" viewBox="0 0 1712.000000 1712.000000"
 preserveAspectRatio="xMidYMid meet">
<metadata>
Created by potrace 1.11, written by Peter Selinger 2001-2013
</metadata>
<g transform="translate(0.000000,1712.000000) scale(0.100000,-0.100000)"
fill="#000000" stroke="none">
<path d="M4795 16421 c-157 -54 -233 -97 -306 -173 -84 -86 -113 -166 -139
-383 -16 -139 -19 -165 -25 -235 -2 -36 -7 -96 -10 -135 -3 -38 -7 -99 -10
-135 -2 -36 -7 -96 -10 -135 -3 -38 -7 -113 -10 -165 -3 -52 -8 -131 -10 -176
l-5 -81 707 1 708 1 -2 50 c0 28 -4 106 -7 175 -3 69 -8 177 -11 240 -3 63 -7
147 -10 185 -3 39 -7 124 -10 190 -10 208 -21 315 -41 392 -52 202 -210 339
-460 403 -124 32 -217 27 -349 -19z"/>
<path d="M7135 16440 c-177 -51 -297 -143 -382 -291 -59 -104 -87 -272 -108
-649 -12 -216 -20 -578 -16 -671 l1 -26 693 1 692 1 -1 85 c-1 76 -7 223 -19
410 -2 36 -6 119 -10 185 -3 66 -8 136 -10 155 -2 19 -7 93 -10 165 -11 214
-55 339 -158 448 -78 81 -217 164 -308 182 -9 2 -34 8 -55 14 -60 17 -239 12
-309 -9z"/>
<path d="M9555 16454 c-290 -60 -436 -164 -498 -354 -21 -65 -39 -201 -52
-400 -3 -52 -8 -115 -10 -140 -2 -25 -7 -97 -10 -160 -3 -63 -8 -142 -10 -175
-2 -33 -7 -130 -11 -215 -3 -85 -7 -166 -7 -180 l-2 -25 658 -2 657 -3 0 598
c-1 640 -1 650 -53 761 -11 25 -50 76 -86 112 -73 74 -185 135 -301 164 -62
16 -232 27 -275 19z"/>
<path d="M11899 16456 c-2 -2 -22 -6 -44 -9 -226 -33 -417 -194 -479 -406 -9
-30 -18 -73 -21 -95 -3 -23 -8 -59 -11 -81 -3 -22 -8 -270 -11 -551 l-5 -511
639 1 638 1 5 100 c7 138 5 1013 -3 1051 -13 67 -39 160 -54 189 -74 145 -230
254 -418 291 -104 21 -224 31 -236 20z"/>
<path d="M7116 14113 c-1 -1 -604 -4 -1341 -8 -737 -3 -1387 -7 -1445 -9 -470
-16 -508 -21 -581 -65 -130 -80 -179 -193 -194 -446 -2 -49 -7 -126 -10 -170
-6 -102 -15 -276 -20 -385 -3 -47 -8 -197 -12 -335 -10 -323 -10 -7199 0
-7495 4 -124 10 -304 12 -400 7 -256 14 -323 46 -402 72 -183 207 -273 454
-304 22 -3 56 -8 75 -12 19 -3 2047 -7 4505 -9 3722 -2 4479 0 4521 11 49 13
136 52 173 78 70 49 159 150 198 223 55 103 52 25 57 1675 6 1931 7 6831 1
6970 -6 159 -20 378 -30 485 -3 28 -7 82 -10 120 -12 169 -52 273 -130 343
-47 42 -132 80 -195 88 -19 2 -53 7 -75 10 -43 6 -71 9 -205 19 -47 3 -110 9
-140 12 -48 5 -5649 11 -5654 6z"/>
<path d="M14272 12980 c-18 -11 -38 -32 -44 -48 -8 -19 -13 -188 -16 -564 l-4
-538 134 -1 c570 -4 1355 -24 1428 -35 108 -18 134 -73 146 -317 6 -124 11
-141 54 -190 22 -26 60 -48 143 -82 181 -76 284 -124 607 -285 262 -130 310
-151 339 -146 19 3 39 10 44 15 9 9 10 190 2 331 -1 30 -6 135 -10 232 -3 97
-8 189 -10 205 -2 15 -6 66 -10 113 -4 47 -9 99 -11 115 -2 17 -6 55 -10 85
-3 30 -8 58 -10 61 -2 3 -6 21 -9 40 -12 73 -50 198 -86 286 -162 399 -488
638 -944 693 -49 6 -103 12 -120 15 -16 2 -77 7 -135 10 -58 4 -121 9 -140 11
-19 2 -321 6 -670 9 -627 6 -635 5 -668 -15z"/>
<path d="M1238 12984 c-2 -2 -33 -6 -68 -9 -183 -17 -401 -100 -561 -215 -228
-163 -427 -426 -503 -666 -23 -73 -28 -94 -41 -164 -3 -14 -7 -36 -9 -50 -3
-14 -8 -52 -11 -85 -3 -33 -8 -73 -10 -90 -2 -16 -7 -64 -10 -105 -3 -41 -10
-102 -14 -135 -5 -33 -9 -210 -10 -392 -1 -257 1 -333 10 -333 7 0 173 79 368
176 532 264 539 267 641 307 52 20 105 44 118 52 35 25 51 66 57 146 17 232
22 264 41 301 34 67 94 85 284 88 69 1 177 4 240 5 63 2 254 6 425 9 458 10
628 15 633 21 4 3 6 1008 3 1116 l-1 27 -789 0 c-434 0 -791 -2 -793 -4z"/>
<path d="M14248 10692 l-37 -3 0 -513 c1 -479 2 -516 20 -555 32 -72 32 -72
523 -76 237 -2 478 -6 536 -10 58 -3 150 -7 205 -10 162 -8 279 -16 300 -20
86 -15 106 -54 120 -235 20 -259 39 -291 202 -330 236 -58 406 -136 705 -323
103 -65 200 -120 215 -123 15 -3 41 -1 57 5 l28 11 -6 123 c-4 67 -9 192 -11
277 -4 143 -9 226 -20 370 -3 30 -7 84 -10 120 -10 121 -16 166 -39 300 -37
219 -140 435 -282 597 -169 192 -469 348 -729 379 -33 3 -69 9 -80 12 -21 5
-1634 9 -1697 4z"/>
<path d="M1175 10683 c-131 -11 -304 -57 -435 -115 -145 -65 -314 -203 -421
-343 -92 -119 -212 -362 -234 -470 -23 -113 -35 -215 -50 -400 -8 -104 -17
-189 -22 -210 -3 -11 -7 -152 -10 -312 -5 -244 -3 -293 8 -294 119 -13 189 7
329 96 128 81 477 244 605 282 119 36 198 92 235 167 29 62 33 87 32 201 -3
132 13 176 71 204 46 22 -2 20 867 36 404 7 643 14 660 20 13 4 15 75 15 572
l0 568 -805 0 c-443 1 -823 -1 -845 -2z"/>
<path d="M14212 7866 l0 -596 606 -1 c931 -1 971 -4 1028 -65 41 -43 56 -105
70 -289 3 -50 14 -108 24 -132 19 -42 74 -91 127 -111 15 -6 77 -29 138 -52
154 -58 422 -174 538 -231 53 -27 154 -88 223 -135 69 -47 128 -84 130 -81 7
7 7 611 0 717 -23 348 -51 543 -101 695 -158 483 -557 782 -1150 861 -27 4
-406 9 -841 11 l-792 4 0 -595z"/>
<path d="M1347 8444 c-1 -1 -45 -4 -97 -8 -112 -7 -265 -42 -375 -86 -396
-157 -724 -547 -809 -962 -28 -135 -25 -116 -41 -333 -3 -44 -9 -107 -14 -140
-5 -33 -10 -216 -10 -407 l-1 -348 62 37 c35 20 110 67 168 103 109 68 253
154 351 208 81 45 190 86 336 128 247 71 280 108 289 327 9 224 42 276 181
293 104 12 190 14 778 19 336 2 620 4 631 5 l21 0 0 584 0 584 -734 -1 c-404
-1 -735 -2 -736 -3z"/>
<path d="M2677 6173 c-3 -3 -581 -13 -1027 -18 -464 -5 -503 -7 -635 -36 -344
-75 -684 -358 -846 -703 -22 -48 -42 -94 -44 -104 -3 -9 -16 -55 -29 -102 -25
-85 -48 -209 -62 -330 -4 -36 -8 -67 -9 -70 -25 -107 -31 -327 -11 -410 3 -14
9 -38 11 -55 3 -16 10 -55 16 -86 35 -201 171 -362 362 -429 79 -28 119 -34
218 -33 240 3 455 154 528 370 26 78 38 160 46 313 15 324 20 371 41 416 34
71 53 73 919 79 347 2 641 5 655 5 l25 0 0 595 0 595 -22 1 c-54 3 -135 4
-136 2z"/>
<path d="M14226 6165 c-14 -15 -16 -74 -16 -586 0 -313 3 -570 8 -570 27 -5
80 -8 262 -13 233 -8 379 -13 595 -21 83 -3 222 -8 310 -10 405 -12 447 -17
480 -53 32 -34 37 -77 60 -497 12 -211 62 -342 175 -456 113 -114 263 -170
438 -164 104 4 166 18 252 58 85 40 187 140 229 224 28 57 38 90 57 193 14 79
13 574 -2 690 -45 358 -160 608 -378 826 -154 152 -353 267 -559 319 -162 41
-248 46 -937 60 -872 17 -957 17 -974 0z"/>
<path d="M11364 3415 c-17 -12 -18 -63 -16 -1119 1 -714 6 -1123 12 -1153 6
-25 22 -69 35 -98 14 -28 25 -55 25 -59 0 -8 50 -77 86 -118 70 -80 182 -151
294 -188 193 -63 492 27 660 199 85 87 139 206 165 366 9 51 19 2087 11 2130
-5 23 -14 36 -34 43 -43 17 -1215 15 -1238 -3z"/>
<path d="M8976 2998 c8 -1222 17 -1683 35 -1817 29 -203 138 -354 326 -449
233 -119 610 -65 789 112 44 44 98 132 117 191 15 47 20 72 31 155 3 19 8 157
11 305 3 149 8 360 10 470 2 110 7 482 11 828 l6 627 -669 0 -670 0 3 -422z"/>
<path d="M4331 3390 c-3 -8 -5 -391 -5 -850 3 -1297 2 -1291 24 -1376 77 -301
324 -494 630 -494 114 0 200 19 287 63 173 85 303 248 350 435 16 61 17 167
18 1139 0 859 -3 1075 -13 1085 -10 10 -145 13 -649 13 -558 0 -636 -2 -642
-15z"/>
<path d="M6666 3394 c-12 -11 -14 -180 -14 -1068 0 -1114 0 -1112 46 -1233 63
-166 249 -338 441 -407 61 -22 89 -26 181 -26 93 0 120 4 177 25 203 77 369
216 438 367 33 71 51 173 49 263 -2 39 -3 515 -4 1060 -1 545 -5 1000 -10
1011 l-8 22 -641 0 c-535 0 -644 -2 -655 -14z"/>
</g>
</svg>
